{"title":"Alvin and The Chipmunks 3 Chipwrecked 2011 CAM XVID-DTRG","uid":6905444,"size":1277490333,"categoryP":"video","categoryS":"movies","magnet":"?xt=urn:btih:0427494d522eef46f5ba1a236ff8e595e244a5c3&amp;dn=Alvin+and+The+Chipmunks+3+Chipwrecked+2011+CAM+XVID-DTRG&amp;tr=udp%3A%2F%2Ftracker.openbittorrent.com%3A80&amp;tr=udp%3A%2F%2Fopen.demonii.com%3A1337&amp;tr=udp%3A%2F%2Ftracker.coppersurfer.tk%3A6969&amp;tr=udp%3A%2F%2Fexodus.desync.com%3A6969","seeders":9,"leechers":1,"uploader":"HeroMaster","files":-1,"time":1324566429,"description":"Alvin and The Chipmunks 3 Chipwrecked 2011 CAM XVID-DTRG\n\n\nFormat                           : AVI\nFormat/Info                      : Audio Video Interleave\nFile size                        : 1.18 GiB\nDuration                         : 1h 20mn\nOverall bit rate                 : 2 102 Kbps\nWriting library                  : VirtualDub build 32842/release\n\nVideo\nID                               : 0\nFormat                           : MPEG-4 Visual\nFormat profile                   : Advanced Simple@L5\nFormat settings, BVOP            : 1\nFormat settings, QPel            : No\nFormat settings, GMC             : No warppoints\nFormat settings, Matrix          : Default (H.263)\nMuxing mode                      : Packed bitstream\nCodec ID                         : XVID\nCodec ID/Hint                    : XviD\nDuration                         : 1h 20mn\nBit rate                         : 1 962 Kbps\nWidth                            : 624 pixels\nHeight                           : 338 pixels\nDisplay aspect ratio             : 16:9\nFrame rate                       : 29.970 fps\nColor space                      : YUV\nChroma subsampling               : 4:2:0\nBit depth                        : 8 bits\nScan type                        : Progressive\nCompression mode                 : Lossy\nBits/(Pixel*Frame)               : 0.310\nStream size                      : 1.10 GiB (93%)\nWriting library                  : XviD 64\n\nAudio\nID                               : 1\nFormat                           : MPEG Audio\nFormat version                   : Version 1\nFormat profile                   : Layer 3\nCodec ID                         : 55\nCodec ID/Hint                    : MP3\nDuration                         : 1h 20mn\nBit rate mode                    : Constant\nBit rate                         : 128 Kbps\nChannel(s)                       : 2 channels\nSampling rate                    : 44.1 KHz\nCompression mode                 : Lossy\nStream size                      : 73.6 MiB (6%)\nAlignment                        : Split accross interleaves\nInterleave, duration             : 33 ms (1.00 video frame)\nInterleave, preload duration     : 500 ms\n\n &lt;a href=&quot;\nhttp://www.imdb.com/title/tt1615918/&quot; rel=&quot;nofollow&quot; target=&quot;_NEW&quot;&gt;\nhttp://www.imdb.com/title/tt1615918/&lt;/a&gt;\n\n\nRatings: 2.9/10 from 907 users   Metascore: 24/100\nReviews: 11 user | 35 critic | 19 from Metacritic.com\n\nPlaying around while aboard a cruise ship, the Chipmunks and Chipettes accidentally go overboard and end up marooned in a tropical paradise. They discover their new turf is not as deserted as it seems.\nDirector:\nMike Mitchell\nWriters:\nJonathan Aibel, Glenn Berger, and 2 more credits Ã‚Â»\nStars:\nJustin Long, Matthew Gray Gubler and Jesse McCartney\n\n\nSource Used\n\n\nUnknown............Thanks\n\n\nPlenty filters but pretty decent vid already but sample included so check it\n\n\nEnjoy\n\n\nGreetz to EMBER,ETRG,BHRG,FYA,26k,CreWSaDe,RemixHD.......and maybe many more \n\n\nPoster:\n\n &lt;a href=&quot;\nhttp://i.imgur.com/RD91h.jpg&quot; rel=&quot;nofollow&quot; target=&quot;_NEW&quot;&gt;\nhttp://i.imgur.com/RD91h.jpg&lt;/a&gt;\n\n\nScreens:\n\n &lt;a href=&quot;\nhttp://i.imgur.com/gbHnT.png&quot; rel=&quot;nofollow&quot; target=&quot;_NEW&quot;&gt;\nhttp://i.imgur.com/gbHnT.png&lt;/a&gt;\n\n &lt;a href=&quot;\nhttp://i.imgur.com/mhPMz.png&quot; rel=&quot;nofollow&quot; target=&quot;_NEW&quot;&gt;\nhttp://i.imgur.com/mhPMz.png&lt;/a&gt;\n\n &lt;a href=&quot;\nhttp://i.imgur.com/XFqiS.png&quot; rel=&quot;nofollow&quot; target=&quot;_NEW&quot;&gt;\nhttp://i.imgur.com/XFqiS.png&lt;/a&gt;\n\n\nENJOY!","torrent":{"xt":"urn:btih:0427494d522eef46f5ba1a236ff8e595e244a5c3","amp;dn":"Alvin+and+The+Chipmunks+3+Chipwrecked+2011+CAM+XVID-DTRG","amp;tr":["udp%3A%2F%2Ftracker.openbittorrent.com%3A80","udp%3A%2F%2Fopen.demonii.com%3A1337","udp%3A%2F%2Ftracker.coppersurfer.tk%3A6969","udp%3A%2F%2Fexodus.desync.com%3A6969"],"infoHash":"0427494d522eef46f5ba1a236ff8e595e244a5c3","infoHashBuffer":{"type":"Buffer","data":[4,39,73,77,82,46,239,70,245,186,26,35,111,248,229,149,226,68,165,195]},"announce":[],"urlList":[]}}